<svg height="230" width="230" xmlns="http://www.w3.org/2000/svg" xmlns:xlink="http://www.w3.org/1999/xlink">
<rect width="230" height="230" rx="18px" ry="18px" fill="rgba(0,0,0,1)"/>
<polygon points="115,115 144,115 144,144" fill="none" stroke="white"><animateTransform attributeName="transform" attributeType="XML" type="rotate" from="0 115 115" to="360 115 115" dur="10s" repeatCount="indefinite"/></polygon>
<polygon points="115,115 144,144 123,164" fill="none" stroke="white"><animateTransform attributeName="transform" attributeType="XML" type="rotate" from="0 115 115" to="360 115 115" dur="10s" repeatCount="indefinite"/></polygon>
<polygon points="115,115 123,164 95,169" fill="none" stroke="white"><animateTransform attributeName="transform" attributeType="XML" type="rotate" from="0 115 115" to="360 115 115" dur="10s" repeatCount="indefinite"/></polygon>
<polygon points="115,115 95,169 68,159" fill="none" stroke="white"><animateTransform attributeName="transform" attributeType="XML" type="rotate" from="0 115 115" to="360 115 115" dur="10s" repeatCount="indefinite"/></polygon>
<polygon points="115,115 68,159 48,138" fill="none" stroke="white"><animateTransform attributeName="transform" attributeType="XML" type="rotate" from="0 115 115" to="360 115 115" dur="10s" repeatCount="indefinite"/></polygon><polygon points="115,115 48,138 39,111" fill="none" stroke="white"><animateTransform attributeName="transform" attributeType="XML" type="rotate" from="0 115 115" to="360 115 115" dur="10s" repeatCount="indefinite"/></polygon><polygon points="115,115 39,111 41,82" fill="none" stroke="white"><animateTransform attributeName="transform" attributeType="XML" type="rotate" from="0 115 115" to="360 115 115" dur="10s" repeatCount="indefinite"/></polygon><polygon points="115,115 41,82 52,56" fill="none" stroke="white"><animateTransform attributeName="transform" attributeType="XML" type="rotate" from="0 115 115" to="360 115 115" dur="10s" repeatCount="indefinite"/></polygon><polygon points="115,115 52,56 72,35" fill="none" stroke="white"><animateTransform attributeName="transform" attributeType="XML" type="rotate" from="0 115 115" to="360 115 115" dur="10s" repeatCount="indefinite"/></polygon><polygon points="115,115 72,35 97,21" fill="none" stroke="white"><animateTransform attributeName="transform" attributeType="XML" type="rotate" from="0 115 115" to="360 115 115" dur="10s" repeatCount="indefinite"/></polygon><polygon points="115,115 97,21 126,16" fill="none" stroke="white"><animateTransform attributeName="transform" attributeType="XML" type="rotate" from="0 115 115" to="360 115 115" dur="10s" repeatCount="indefinite"/></polygon><polygon points="115,115 126,16 154,19" fill="none" stroke="white"><animateTransform attributeName="transform" attributeType="XML" type="rotate" from="0 115 115" to="360 115 115" dur="10s" repeatCount="indefinite"/></polygon><polygon points="115,115 154,19 181,30" fill="none" stroke="white"><animateTransform attributeName="transform" attributeType="XML" type="rotate" from="0 115 115" to="360 115 115" dur="10s" repeatCount="indefinite"/></polygon>
</svg>